<?xml version="1.0" encoding="UTF-8" standalone="no"?>
<!-- Generator: Adobe Illustrator 15.1.0, SVG Export Plug-In . SVG Version: 6.00 Build 0)  -->

<svg
   xmlns:dc="http://purl.org/dc/elements/1.1/"
   xmlns:cc="http://creativecommons.org/ns#"
   xmlns:rdf="http://www.w3.org/1999/02/22-rdf-syntax-ns#"
   xmlns:svg="http://www.w3.org/2000/svg"
   xmlns="http://www.w3.org/2000/svg"
   xmlns:sodipodi="http://sodipodi.sourceforge.net/DTD/sodipodi-0.dtd"
   xmlns:inkscape="http://www.inkscape.org/namespaces/inkscape"
   version="1.1"
   id="Layer_1"
   x="0px"
   y="0px"
   width="1000px"
   height="676px"
   viewBox="0 0 1000 676"
   enable-background="new 0 0 1000 676"
   xml:space="preserve"
   sodipodi:docname="goppelbike.svg"
   inkscape:version="0.92.0 r15299"><metadata
     id="metadata9"><rdf:RDF><cc:Work
         rdf:about=""><dc:format>image/svg+xml</dc:format><dc:type
           rdf:resource="http://purl.org/dc/dcmitype/StillImage" /></cc:Work></rdf:RDF></metadata><defs
     id="defs7"><inkscape:perspective
       sodipodi:type="inkscape:persp3d"
       inkscape:vp_x="0 : 338 : 1"
       inkscape:vp_y="0 : 1000 : 0"
       inkscape:vp_z="1000 : 338 : 1"
       inkscape:persp3d-origin="500 : 225.33333 : 1"
       id="perspective4536" /></defs><sodipodi:namedview
     pagecolor="#ffffff"
     bordercolor="#666666"
     borderopacity="1"
     objecttolerance="10"
     gridtolerance="10"
     guidetolerance="10"
     inkscape:pageopacity="0"
     inkscape:pageshadow="2"
     inkscape:window-width="1920"
     inkscape:window-height="1001"
     id="namedview5"
     showgrid="false"
     inkscape:zoom="0.95883679"
     inkscape:cx="444.49633"
     inkscape:cy="414.94009"
     inkscape:window-x="-9"
     inkscape:window-y="-9"
     inkscape:window-maximized="1"
     inkscape:current-layer="layer2" /><g
     inkscape:groupmode="layer"
     id="layer2"
     inkscape:label="bike"
     style="display:inline"><path
       d="m 766.37854,375.2186 c -13.548,0 -26.582,2.253 -38.771,6.365 -0.773,-2.61 -1.577,-5.28 -2.395,-7.973 12.932,-4.349 26.777,-6.699 41.166,-6.699 4.469,0 8.894,0.224 13.243,0.661 0,0 0.142,-3.911 8.09,-6.09 7.949,-2.163 -16.403,-2.58 -16.403,-2.58 -4.356,-0.438 -8.767,-0.669 -13.229,-0.669 -12.537,0 -24.665,1.784 -36.124,5.116 -6.99,-21.654 -14.41,-41.939 -14.41,-41.946 l -3.311,-23.215 c 0,0 -0.104,0.022 -0.252,0.052 l -23.676,-134.733 c 6.632,-1.42 11.266,-3.733 11.012,-5.755 -0.245,-2 -5.212,-3.101 -11.882,-2.893 l -5.332,-36.734 -4.863,-46.831999 c 3.732,-3.748 5.422,-9.347 3.903,-14.813 -2.223,-8.135 -10.618,-12.916998 -18.746,-10.685 -2.476,0.662 -4.617,1.918 -6.364,3.562 l -4.313,-0.736 c -2.773,-2.863 -6.96,-4.164998 -11.079,-3.027 -6.009,1.651 -9.54,7.853 -7.89,13.853 1.65,6.016 7.852,9.555 13.846,7.897 1.153,-0.313 2.193,-0.789 3.153,-1.406 l 2.624,0.454 c 1.903,4.565 5.83,7.8 10.426,8.938 l 0.513,2.669 v 0 l 11.787,78.560999 c -5.675,1.428 -9.467,3.51 -9.259,5.339 0.23,1.845 4.47,2.93 10.373,2.922 l 11.504,138.868 c -2.744,0.707 -5.005,1.354 -6.328,1.874 -10.774,4.268 -31.261,15.393 -42.177,19.37 -42.652,15.566 -158.512,45.102 -199.812,55.474 l -6.328,-19.705 c 3.414,-1.971 5.369,-3.948 4.931,-5.316 -0.558,-1.732 -4.781,-2.046 -10.425,-1.019 l -52.038,-159.235 16.293,-12.023 c 0.268,-0.208 2.952,-1.814 5.175,-3.25 8.217,0.394 16.063,1.182 22.762,2.082 0.586,0.12 1.286,0.12 1.553,-0.379 1.488,-2.647 1.436,-5.577 0.395,-8.149 -2.052,-4.574 -6.677,-15.475 -11.629,-15.512 -39.121,-11.89 -80.941,1.026 -114.82,-5.436 v 0 c -3.509,0 -6.439,2.677 -6.603,6.201 -0.438,4.35 0,8.968 0.401,13.191 9.488,8.09 19.007,13.987 29.595,19.4 l 12.679,11.236 c 0.795,0.692 1.695,1.294 2.722,1.167 l 29.885,-4.268 50.252,159.182 c -5.428,2.477 -8.894,5.265 -8.321,7.058 0.476,1.494 3.688,1.926 8.194,1.359 l 5.339,16.509 c -2.461,1.323 -5.956,3.234 -10.269,5.651 -25.855,-20.374 -51.13,-30.592 -63.451,-34.771 7.592,-2.758 14.173,-7.168 16.039,-9.934 1.041,-1.547 0.893,-2.774 0.588,-3.54 -0.32,-0.781 -1.227,-2.104 -3.77,-2.104 -2.982,0 -8.396,1.726 -14.657,3.793 -2.015,0.67 -4.275,1.413 -4.997,1.562 -0.127,0.007 -0.536,0.029 -1.704,0.029 -9.362,0 -49.107,-1.018 -81.037,-1.821 -23.81,-0.596 -44.363,-1.115 -47.984,-1.115 -3.845,0 -8.752,-2.544 -13.058,-4.767 -3.979,-2.061 -7.116,-3.681 -9.749,-3.681 -1.956,0 -3.101,0.9 -3.726,1.672 -0.885,1.071 -2.119,3.377 -0.535,6.708 2.855,6.038 14.433,12.842 18.88,12.842 0.164,0 0.521,0 1.026,0.008 4.223,2.759 16.143,11.288 30.577,28.011 -42.928,20.145 -72.739,63.786 -72.739,114.254 0,69.558 56.588,126.152 126.137,126.152 69.557,0 126.145,-56.595 126.145,-126.152 0,-1.903 -0.05,-3.776 -0.134,-5.651 5.92,-0.758 10.508,-1.323 13.066,-1.657 6.052,24.353 28.055,42.392 54.275,42.392 30.466,0 55.235,-24.353 55.926,-54.653 l 13.883,-1.703 -0.98,6.93 c -0.283,2.03 1.13,3.949 3.204,4.239 l 5.324,0.743 c 2.053,0.29 3.956,-1.146 4.239,-3.183 l 3.509,-24.836 c 0.29,-2.06 -1.138,-3.949 -3.189,-4.239 l -5.332,-0.759 c -2.066,-0.29 -3.955,1.132 -4.245,3.214 l -1.442,10.209 -15.296,1.873 c -2.364,-21.378 -16.761,-39.113 -36.273,-46.303 v 0 c 0,0 13.028,-32.793 37.537,-40.118 l 167.184,-49.969 c 2.989,8.358 7.801,22.122 12.231,36.057 -45.827,19.913 -77.898,65.57 -77.898,118.745 0,6.418 0.743,12.693 1.376,18.895 0.438,4.224 -1.733,13.26 -4.27,18.68 -2.527,5.428 11.423,-4.097 12.583,-9.993 1.204,-6.113 -1.377,-12.493 -1.377,-18.926 0,-51.227 29.774,-95.5 72.97,-116.455 0.826,2.781 1.613,5.511 2.336,8.143 -39.693,19.899 -67.007,60.969 -67.007,108.313 0,66.775 54.32,121.096 121.073,121.096 66.775,0 121.09601,-54.32 121.09601,-121.096 -0.02,-66.755 -54.33101,-121.067 -121.11401,-121.067 z m -439.563,-178.896 -3.451,-3.175 c 7.065,-1.911 14.746,-6.789 18.977,-8.864 10.195,-3.235 22.033,-4.461 33.715,-4.625 -0.401,0.632 -0.699,1.108 -0.744,1.138 l -14.746,10.864 z m 135.238,234.211 c 2.156,-0.409 4.224,1.034 4.618,3.198 0.4,2.148 -1.035,4.223 -3.19,4.632 -5.265,0.96 -10.166,2.975 -14.575,6.031 -0.691,0.476 -1.479,0.699 -2.252,0.699 -1.265,0 -2.506,-0.596 -3.272,-1.71 -1.249,-1.8 -0.796,-4.283 1.012,-5.519 5.338,-3.709 11.28,-6.155 17.659,-7.331 z m -63.659,-39.84 c -1.309,0.735 -2.685,1.517 -4.112,2.334 -24.457,-20.375 -49.04,-31.47 -63.303,-36.756 0.625,-0.127 1.25,-0.261 1.867,-0.409 9.666,2.959 37.127,12.685 65.548,34.831 z m -25.737,105.604 c 0,52.781 -42.928,95.71 -95.708,95.71 -52.766,0 -95.701,-42.929 -95.701,-95.71 0,-40.548 25.379,-75.304 61.086,-89.217 10.842,16.583 21.854,37.589 31.328,63.816 -13.207,1.019 -23.602,12.054 -23.602,25.535 0,14.128 11.466,25.602 25.594,25.602 11.094,0 20.545,-7.071 24.1,-16.932 11.779,-2.364 44.705,-6.871 72.873,-10.559 0.02,0.595 0.03,1.175 0.03,1.755 z m -95.708,-109.509 c 1.138,0 2.275,0.029 3.398,0.06 -0.334,2.074 -0.662,4.26 -0.989,6.565 -0.796,-0.022 -1.599,-0.044 -2.409,-0.044 -5.867,0 -11.623,0.497 -17.236,1.456 -1.421,-2.052 -2.849,-4.029 -4.247,-5.919 6.945,-1.375 14.136,-2.118 21.483,-2.118 z m -33.024,-12.225 c -7.667,-8.805 -14.574,-15.311 -19.898,-19.831 2.499,0.059 5.093,0.119 7.748,0.186 17.489,0.409 38.125,0.892 55.614,1.272 -0.848,2.431 -2.276,7.004 -3.89,14.143 -2.171,-0.119 -4.35,-0.172 -6.543,-0.172 -11.429,-0.001 -22.501,1.532 -33.031,4.402 z m 41.412,98.163 c -1.896,-0.781 -3.911,-1.354 -6.008,-1.644 0.26,-29.714 2.03,-52.825 4.202,-70.255 22.412,1.532 42.712,10.813 58.269,25.164 -20.295,14.062 -40.966,30.22 -56.463,46.735 z m -9.057,-50.877 c -3.986,-7.407 -8.053,-14.203 -12.091,-20.39 4.179,-0.565 8.44,-0.855 12.76,-0.855 0.491,0 0.967,0.016 1.458,0.016 -0.781,6.327 -1.503,13.391 -2.127,21.229 z m -22.003,-25.952 c -3.822,0.87 -7.57,1.948 -11.221,3.229 -1.331,-1.927 -2.647,-3.794 -3.956,-5.578 3.562,-1.323 7.228,-2.461 10.961,-3.412 1.389,1.849 2.803,3.768 4.216,5.761 z m 4.446,6.447 c 5.644,8.515 11.363,18.196 16.88,29.18 -0.505,8.29 -0.915,17.34 -1.138,27.2 -8.455,-21.305 -17.891,-38.949 -27.245,-53.39 3.733,-1.213 7.577,-2.217 11.503,-2.99 z m 42.519,93.516 c -0.134,-6.477 -2.685,-12.374 -6.782,-16.82 15.593,-16.24 35.559,-31.834 54.907,-45.226 11.712,13.548 19.684,30.398 22.323,48.974 z m 54.135,-66.151 c 1.851,-1.234 3.688,-2.469 5.51,-3.674 12.708,15.162 21.393,33.767 24.413,54.216 l -6.477,1.219 c -2.849,-19.578 -11.199,-37.373 -23.446,-51.761 z m -7.459,-7.891 c -16.768,-15.987 -38.913,-26.375 -63.415,-28.175 0.327,-2.29 0.662,-4.461 0.997,-6.521 26.368,2.038 50.156,13.481 68.01,30.948 -1.852,1.235 -3.71,2.484 -5.592,3.748 z m -59.25,-51.106 c 2.015,-8.827 3.673,-13.363 4.06,-14.404 14.872,0.327 26.777,0.564 31.32,0.595 12.009,3.934 39.753,14.746 67.548,37.648 -6.975,4.045 -15.08,8.872 -23.795,14.322 -20.411,-21.193 -48.17,-35.299 -79.133,-38.161 z m -111.027,-31.693 c -0.297,-0.632 -0.297,-0.959 -0.23,-1.152 1.427,0.045 4.565,1.666 7.339,3.102 4.833,2.513 10.314,5.339 15.393,5.339 3.562,0 24.085,0.527 47.851,1.122 33.625,0.855 71.75,1.822 81.171,1.822 1.844,0 2.194,-0.038 2.476,-0.09 0.997,-0.163 2.781,-0.75 5.83,-1.763 2.387,-0.795 5.451,-1.814 8.105,-2.55 -4.818,3.116 -13.154,7.005 -20.613,7.005 -7.86,0 -57.101,-1.16 -93.054,-1.992 -21.416,-0.507 -38.325,-0.9 -39.961,-0.9 -2.216,-0.001 -12.21,-5.526 -14.307,-9.943 z m 24.271,15.199 c 3.785,0.097 8.507,0.201 13.839,0.328 5.086,3.911 13.28,10.871 22.835,21.602 -3.48,1.1 -6.893,2.349 -10.232,3.755 -10.707,-12.575 -20.18,-20.843 -26.442,-25.685 z m 184.561,142.079 c 0,60.389 -49.122,109.525 -109.524,109.525 -60.388,0 -109.51,-49.129 -109.51,-109.525 0,-45.24 27.581,-84.16 66.82,-100.839 1.301,1.762 2.617,3.599 3.934,5.502 -37.597,15.342 -64.165,52.284 -64.165,95.33 0,56.76 46.17,102.944 102.921,102.944 56.767,0 102.937,-46.185 102.937,-102.944 0,-0.899 0,-1.8 -0.04,-2.684 2.238,-0.29 4.424,-0.58 6.551,-0.856 0.05,1.198 0.07,2.359 0.07,3.547 z m -11.495,-79.296 c 17.98,-11.214 32.979,-19.446 39.774,-23.074 l 14.196,43.85 v 0 c -8.939,9.801 -14.418,22.799 -14.575,37.062 l -12.723,2.364 c -3.45,-22.577 -12.909,-43.196 -26.68,-60.202 z m 63.265,85.38 c -0.692,0.468 -1.48,0.698 -2.254,0.698 -1.263,0 -2.513,-0.595 -3.278,-1.703 -3.689,-5.346 -6.158,-11.302 -7.325,-17.675 -0.394,-2.164 1.048,-4.224 3.206,-4.618 2.171,-0.408 4.238,1.034 4.632,3.198 0.959,5.257 2.99,10.165 6.031,14.567 1.249,1.8 0.788,4.283 -1.012,5.533 z m 1.011,-48.335 c -3.049,4.402 -5.079,9.296 -6.038,14.567 -0.357,1.919 -2.022,3.265 -3.911,3.265 -0.238,0 -0.476,-0.03 -0.721,-0.06 -2.157,-0.408 -3.592,-2.484 -3.205,-4.633 1.167,-6.373 3.636,-12.328 7.325,-17.661 1.242,-1.799 3.718,-2.268 5.532,-1.018 1.807,1.258 2.268,3.726 1.018,5.54 z m 27.418,63.125 c -0.343,1.918 -2.023,3.264 -3.897,3.264 -0.237,0 -0.476,-0.029 -0.721,-0.059 -6.38,-1.175 -12.321,-3.644 -17.66,-7.333 -1.808,-1.234 -2.261,-3.718 -1.012,-5.517 1.242,-1.814 3.718,-2.253 5.532,-1.019 4.41,3.049 9.311,5.071 14.575,6.03 2.148,0.403 3.591,2.47 3.183,4.634 z m 29.558,-4.128 c -5.34,3.689 -11.282,6.158 -17.661,7.333 -0.238,0.029 -0.476,0.059 -0.721,0.059 -1.889,0 -3.562,-1.354 -3.911,-3.264 -0.394,-2.164 1.034,-4.225 3.197,-4.633 5.265,-0.959 10.173,-2.975 14.575,-6.03 1.799,-1.234 4.283,-0.796 5.532,1.019 1.249,1.798 0.802,4.282 -1.011,5.516 z m 18.998,-29.334 c -1.167,6.372 -3.621,12.328 -7.31,17.675 -0.773,1.101 -2.015,1.702 -3.278,1.702 -0.773,0 -1.562,-0.229 -2.254,-0.698 -1.814,-1.249 -2.26,-3.732 -1.019,-5.533 3.049,-4.401 5.079,-9.309 6.039,-14.566 0.393,-2.164 2.461,-3.6 4.632,-3.197 2.149,0.386 3.577,2.453 3.19,4.617 z m -12.842,-35.195 c 1.799,-1.249 4.283,-0.796 5.532,1.019 3.689,5.332 6.143,11.288 7.31,17.661 0.394,2.148 -1.041,4.224 -3.19,4.632 -0.237,0.03 -0.491,0.061 -0.721,0.061 -1.89,0 -3.562,-1.354 -3.911,-3.265 -0.959,-5.272 -2.99,-10.165 -6.039,-14.567 -1.249,-1.823 -0.796,-4.291 1.019,-5.541 z m -5.138,-5.138 c -0.773,1.115 -2.015,1.71 -3.279,1.71 -0.773,0 -1.561,-0.216 -2.253,-0.699 -4.41,-3.049 -9.317,-5.071 -14.575,-6.03 -2.164,-0.408 -3.591,-2.484 -3.197,-4.633 0.4,-2.164 2.476,-3.6 4.632,-3.197 6.38,1.175 12.321,3.613 17.66,7.317 1.807,1.249 2.254,3.732 1.012,5.532 z m -22.049,-23.646 c -1.606,-0.135 -3.242,-0.216 -4.899,-0.216 -8.804,0 -17.147,2.03 -24.561,5.681 l -5.272,-16.471 54.267,-16.21 c -10.209,9.123 -16.805,21.468 -19.535,27.216 z m 291.179,182.471 c -58.387,0 -105.896,-47.508 -105.896,-105.904 0,-40.169 22.502,-75.214 55.569,-93.15 0.477,1.979 1.131,4.172 1.919,6.521 -30.324,17.021 -50.848,49.465 -50.848,86.629 0,54.737 44.542,99.286 99.264,99.286 54.736,0 99.285,-44.541 99.285,-99.286 0,-54.743 -44.542,-99.271 -99.285,-99.271 -11.653,0 -22.865,2.03 -33.277,5.748 -0.07,-0.318 -0.155,-0.624 -0.207,-0.937 -0.365,-1.718 -0.781,-3.606 -1.265,-5.577 10.887,-3.8 22.576,-5.866 34.749,-5.866 58.402,0 105.918,47.516 105.918,105.896 0,58.41 -47.515,105.911 -105.926,105.911 z m -5.703,-107.049 c 1.756,3.793 5.593,6.433 10.047,6.433 6.112,0 11.071,-4.968 11.071,-11.08 0,-6.127 -4.959,-11.095 -11.071,-11.095 -1.473,0 -2.9,0.306 -4.194,0.825 -9.682,-19.095 -25.171,-50.847 -31.454,-70.485 9.778,-3.562 20.337,-5.487 31.32,-5.487 50.772,0 92.059,41.276 92.059,92.034 0,50.76 -41.286,92.066 -92.059,92.066 -50.751,0 -92.035,-41.307 -92.035,-92.066 0,-34.042 18.59,-63.845 46.147,-79.765 11.051,27.915 35.797,71.08 40.169,78.62 z"
       id="path2"
       style="fill:#010101;fill-opacity:0.26368159;stroke:#1e90ff;stroke-opacity:0.06965176"
       inkscape:connector-curvature="0" /></g><g
     inkscape:groupmode="layer"
     id="layer3"
     inkscape:label="logo"
     style="display:inline"><g
       id="g891"
       transform="matrix(1.1841346,0,0,1.6788651,409.75257,197.15895)"><path
         id="path881"
         d="m 77.3,47.8 c 0,2.7 -1,5.1 -2.9,7.4 -2.7,3.3 -6.3,5.6 -10.9,7.1 -3.4,1.1 -6.6,1.6 -9.8,1.6 -1.2,0 -2.3,-0.1 -3.4,-0.2 C 43,62.8 36.8,61.2 31.7,58.9 27.1,62.3 22.2,64 17.1,64 11,64 7.3,62.3 5.8,59 5.5,58.2 5.3,57.3 5.3,56.2 c 0,-1.1 0.5,-2.2 1.6,-3.4 1.7,-1.9 4,-2.8 7,-2.8 2,0 3.7,0.3 5.3,0.8 1.6,0.6 3.5,1.5 5.9,2.7 2.3,1.3 4.1,2.2 5.2,2.7 2.1,-2 4.2,-4.8 6.4,-8.4 2.2,-3.6 4.1,-7.1 5.8,-10.5 1.7,-3.4 3.8,-7.2 6.3,-11.4 2.6,-4.2 5.2,-7.8 7.8,-10.7 l 4,-4.5 C 56.9,10 52.9,9.7 48.4,9.7 44,9.7 39.1,10.3 33.8,11.5 26.5,13 20.9,16.2 17,20.9 c -2.4,2.8 -3.6,5.6 -3.6,8.1 0,3.4 1.7,5.6 5,6.6 1.2,0.3 2.2,0.5 3.1,0.5 0.9,0 1.9,-0.2 3.1,-0.5 1.2,-0.3 2.3,-1 3.4,-2.1 1.1,-1.1 1.9,-2.1 2.4,-3 0.5,-1 0.7,-1.7 0.7,-2.2 0,-0.5 0.2,-0.7 0.7,-0.7 0.5,0 0.7,0.4 0.8,1 v 0.1 c -0.5,3.4 -2.3,6 -5.5,7.8 -1.9,1 -3.8,1.5 -5.7,1.5 l -3.6,-0.6 c -4.9,-1.7 -7.4,-4.9 -7.4,-9.7 0,-3.2 1.4,-6.4 4.3,-9.5 C 19.3,13.1 26,9.9 34.9,8.6 39.2,8 43.7,7.7 48.3,7.7 c 4.6,0 9.4,0.5 14.2,1.5 1.3,-1.1 2.4,-1.9 3.4,-2.2 1,-0.4 1.6,-0.6 1.7,-0.6 0.2,0 0.3,0 0.3,0.1 0.3,0 0.3,0.2 0.2,0.5 -0.2,0.3 -0.7,0.7 -1.5,1.3 -0.9,0.6 -1.4,1.1 -1.6,1.5 6.3,1.6 10.9,4 13.7,7 1.5,1.7 2.2,3.4 2.2,5.1 0,1.7 -0.5,3.5 -1.5,5.3 -1.4,2.3 -3.5,4.1 -6.6,5.3 -3,1.2 -6.1,1.9 -9.2,2 3,0.9 5.8,2.2 8.3,3.9 3.6,2.2 5.4,5.4 5.4,9.4 z M 28.8,57.5 C 23.3,54.9 19.9,53.3 18.4,52.8 17,52.3 15.5,52 14.1,52 c -1.4,0 -2.6,0.5 -3.4,1.5 -0.8,1 -1.3,1.9 -1.3,2.7 0,0.8 0.2,1.6 0.6,2.3 1,2.1 3.2,3.1 6.4,3.1 4.5,0.2 8.6,-1.2 12.4,-4.1 z m 24,4.4 c 5.2,0 9.7,-1.5 13.3,-4.5 4,-3.2 6,-6.6 6,-10.3 0,-3.8 -2,-6.7 -6.1,-8.7 C 64.5,37.7 62.7,37 60.5,36.3 58.3,35.6 56.6,35.1 55.3,34.6 54,34.1 53.2,33.7 53,33.3 c 0,-0.9 0.7,-1.4 2,-1.4 0.9,0 2.2,0.1 4.1,0.2 1.8,0.1 3.4,0.2 4.7,0.2 1.3,0 2.9,-0.5 4.7,-1.4 1.8,-0.9 3.4,-2.1 4.7,-3.5 2.1,-2.3 3.2,-4.5 3.2,-6.6 0,-4.4 -4.1,-7.5 -12.3,-9.4 C 61.6,14.8 57.2,22 50.8,33 44.4,44 39.4,51.4 35.9,55.1 l -2.7,2.5 c 5.3,2.2 10.9,3.6 17,4.2 1,0.1 1.8,0.1 2.6,0.1 z"
         inkscape:connector-curvature="0"
         style="fill:#010101" /><path
         id="path883"
         d="m 84.2,59.7 c 0.9,0 1.8,-0.4 2.8,-1.3 1.7,-1.7 3.9,-5.2 6.6,-10.6 0.3,-0.7 0.7,-0.9 1,-0.6 0.1,0.1 0.1,0.2 0.1,0.5 0,0.3 -0.2,0.7 -0.6,1.5 -0.4,0.8 -0.7,1.6 -1,2.2 -0.3,0.7 -0.9,1.7 -1.8,3.2 -0.9,1.5 -1.6,2.6 -2.3,3.4 -1.9,2.2 -3.7,3.3 -5.4,3.3 -1.7,0 -2.9,-0.5 -3.7,-1.5 -0.7,-1 -1.1,-2.2 -1.1,-3.4 0,-1.3 0.3,-2.6 0.9,-4.1 l 4.5,-11.4 c 0.1,-0.3 0.1,-0.7 0.1,-1.1 0,-0.5 -0.3,-1.1 -0.8,-1.8 l 3.9,-0.1 c 1.1,0 1.7,0.2 1.9,0.6 0.2,0.4 0,1 -0.4,1.9 l -5.6,13.1 c -0.8,1.7 -1.2,3.2 -1.2,4.4 0,1.1 0.7,1.8 2.1,1.8 z M 91.1,34 c -0.7,0.6 -1.4,0.8 -2.2,0.8 -0.8,0 -1.4,-0.3 -1.9,-0.8 -0.5,-0.6 -0.7,-1.2 -0.6,-2 0.1,-0.8 0.5,-1.5 1.2,-2 0.7,-0.6 1.4,-0.8 2.2,-0.8 0.8,0 1.4,0.3 1.9,0.8 0.5,0.6 0.7,1.2 0.5,2 -0.1,0.8 -0.5,1.4 -1.1,2 z"
         inkscape:connector-curvature="0"
         style="fill:#010101" /><path
         id="path885"
         d="m 111.7,42.3 c 0,-1.3 -0.6,-1.9 -1.9,-1.9 -1.9,0 -4,1.1 -6.5,3.2 -2.5,2.1 -4.5,4.4 -6.1,6.7 -0.7,1.4 -1.3,3.1 -1.7,5.1 -0.4,2.1 -0.7,3.5 -0.7,4.3 0,0.8 0.1,1.3 0.4,1.5 h -4.4 c -0.7,0 -0.9,-0.6 -0.5,-1.9 0.4,-1.2 0.8,-2.6 1.4,-4 0.6,-1.4 1.4,-3.1 2.3,-5 0.9,-1.9 1.6,-3.3 2,-4.3 -3.8,7.2 -6.3,11.4 -7.4,12.5 -0.5,0.4 -0.7,0.3 -0.7,-0.4 0,-0.1 0,-0.3 0.1,-0.5 1.6,-2.1 4.9,-8 9.8,-17.5 4.9,-9.5 8.3,-15.7 10.3,-18.7 1.6,-2.3 3.1,-3.4 4.6,-3.4 h 0.1 0.3 c 0,0 0.5,0.1 1.2,0.2 0.8,0.1 1.3,0.2 1.7,0.1 -1.7,1.3 -4.1,4.3 -7.1,9 -3,4.7 -5.4,8.8 -7.2,12.3 -1.8,3.5 -3,6.2 -3.6,8 4.2,-5.3 8,-8.5 11.4,-9.8 1.6,-0.5 2.8,-0.8 3.8,-0.8 2.1,0 3.1,0.9 3.1,2.6 0,0.6 -0.1,1.2 -0.4,1.9 -0.7,1.8 -2,3.4 -4,4.8 -2,1.4 -4.3,2.3 -6.7,2.5 -0.6,1.3 -0.8,2.5 -0.8,3.6 0,1.1 0.1,2.1 0.4,3 0.6,2.2 1.6,3.6 3.1,4.1 0.3,0.1 0.7,0.1 1,0.1 1.3,0 2.8,-0.8 4.6,-2.5 1.4,-1.6 3.3,-4.8 5.7,-9.6 0.3,-0.6 0.6,-0.8 0.8,-0.6 0.2,0.2 0.3,0.4 0.3,0.6 0,0.2 -0.4,1.1 -1.1,2.7 -0.7,1.6 -1.7,3.4 -2.9,5.4 -2.7,4 -5.6,6 -8.8,6 -2,0 -3.5,-0.6 -4.6,-1.7 -1.5,-1.6 -2.3,-3.7 -2.3,-6.2 0,-1.3 0.3,-2.6 1,-4 0.7,-1.4 1.5,-2.1 2.5,-2.2 0.1,0 0.3,0 0.4,0 1.6,0 3.2,-0.6 4.8,-1.9 1.6,-1.1 2.3,-2.3 2.3,-3.3 z"
         inkscape:connector-curvature="0"
         style="fill:#010101" /><path
         id="path887"
         d="m 122.2,50.4 c -0.7,1.6 -1,3.4 -1,5.3 0,1.3 0.3,2.3 0.9,3.1 0.6,0.8 1.4,1.2 2.5,1.2 4.2,0 8.1,-4 11.5,-12 0.3,-0.7 0.7,-1.1 1.2,-1 0.2,0 0.3,0.2 0.3,0.4 0,0.2 -0.5,1.4 -1.6,3.7 -1,2.3 -2.1,4.1 -3.2,5.5 -2.4,3.3 -5.3,4.9 -8.8,4.9 -1.9,0 -3.5,-0.6 -4.8,-1.8 -1.3,-1.2 -2,-2.9 -2,-5 0,-2.1 0.5,-4.3 1.5,-6.7 1,-2.4 2.4,-4.5 4.1,-6.6 1.7,-2.1 3.7,-3.5 6,-4.4 1.1,-0.5 2.1,-0.7 3.1,-0.7 1,0 1.9,0.3 2.7,0.8 0.8,0.7 1.2,1.4 1.2,2.2 0,2.8 -1.7,5.5 -5,8 -1,0.8 -2.5,1.5 -4.3,2.1 -1.9,0.7 -3.4,1 -4.3,1 z m 11.7,-11.2 c 0,-0.9 -0.4,-1.4 -1.1,-1.4 -1.3,0 -3.3,1.6 -6,4.8 -1.6,2 -3,4.2 -4.2,6.6 0.8,0 1.9,-0.3 3.5,-0.8 1.5,-0.6 2.8,-1.3 4,-2.2 2.5,-2.2 3.8,-4.5 3.8,-7 z"
         inkscape:connector-curvature="0"
         style="fill:#010101" /><path
         id="path889"
         d="m 208.1,4 c 1.1,0 1.6,0.3 1.6,0.9 0,0.5 -0.7,1.4 -2,2.8 -1.4,1.4 -3.7,3.2 -7.1,5.6 -3.4,2.4 -8.1,5.7 -14.1,9.8 -6,4.2 -11,7.6 -14.9,10.4 0,2.7 -0.1,5.2 -0.1,7.6 0,8.1 0.4,13.5 1.1,16.4 1.1,3.9 2.9,5.9 5.4,5.9 3.5,0 7.1,-2.9 10.9,-8.6 1.4,-2.1 2.6,-4.3 3.6,-6.8 0.3,-0.7 0.7,-1 1.1,-0.9 0.4,0.1 0.4,0.5 0.1,1.3 -4.2,8.8 -8.8,14.7 -13.9,17.5 -1.9,1.1 -3.7,1.6 -5.3,1.6 -1.6,0 -3.1,-0.6 -4.4,-1.9 -1.3,-1.3 -2.2,-3.1 -2.7,-5.5 -0.3,-1.3 -0.4,-4.2 -0.4,-9 0,-4.7 0,-9.7 0.1,-14.8 -18.2,13.1 -30.9,25.4 -38.1,36.8 -1.4,2.4 -2.9,3.6 -4.3,3.6 -0.7,0 -1,-0.3 -1,-0.8 0,-0.4 0.2,-0.8 0.5,-1.4 l 0.8,-1.4 c 9.5,-13.1 23.5,-26.3 42,-39.5 0,-1.2 0,-3.8 0,-7.7 0,-3.9 -0.2,-7.5 -0.7,-10.7 -0.6,-3.7 -2.6,-5.5 -6.2,-5.5 -4.4,0 -9.1,2 -14.1,5.9 -2.6,2 -4.2,3.8 -5,5.5 -0.1,0.1 -0.4,0.1 -0.8,0 -1,-0.3 -1.1,-1 -0.4,-2.2 0.4,-0.7 1.8,-1.9 4.1,-3.8 2.3,-1.9 5.3,-3.9 9,-5.9 3.7,-2 6.9,-3 9.7,-3 2.9,0 4.9,1.2 6.2,3.5 1.3,2.4 2.1,4.9 2.2,7.6 0.3,3.7 0.5,6.6 0.5,8.8 0,2.2 0,3.4 0,3.9 0,0.5 0,0.9 0,1.2 2.7,-1.9 6.7,-4.7 12,-8.3 5.3,-3.6 9.4,-6.4 12.2,-8.5 2.8,-2.1 5.2,-4.1 7.2,-6.1 0.2,-0.2 0.4,-0.4 0.8,-0.7 0.3,-0.3 0.6,-0.5 0.7,-0.7 0.2,-0.2 0.4,-0.4 0.6,-0.6 0.3,-0.2 0.5,-0.4 0.6,-0.6 0.2,-0.1 0.4,-0.3 0.6,-0.5 0.2,-0.2 0.4,-0.3 0.5,-0.4 0.1,-0.1 0.3,-0.2 0.5,-0.3 0.5,-0.4 0.7,-0.5 0.9,-0.5 z"
         inkscape:connector-curvature="0"
         style="fill:#010101" /></g></g></svg>