<?xml version="1.0" encoding="UTF-8" standalone="no"?>
<!-- Generator: Adobe Illustrator 17.1.0, SVG Export Plug-In . SVG Version: 6.00 Build 0)  -->

<svg
   xmlns:dc="http://purl.org/dc/elements/1.1/"
   xmlns:cc="http://creativecommons.org/ns#"
   xmlns:rdf="http://www.w3.org/1999/02/22-rdf-syntax-ns#"
   xmlns:svg="http://www.w3.org/2000/svg"
   xmlns="http://www.w3.org/2000/svg"
   xmlns:sodipodi="http://sodipodi.sourceforge.net/DTD/sodipodi-0.dtd"
   xmlns:inkscape="http://www.inkscape.org/namespaces/inkscape"
   version="1.1"
   id="Capa_1"
   x="0px"
   y="0px"
   viewBox="0 0 294.313 294.313"
   style="enable-background:new 0 0 294.313 294.313;"
   xml:space="preserve"
   sodipodi:docname="old-bike.svg"
   inkscape:version="0.92.0 r15299"><metadata
     id="metadata4675"><rdf:RDF><cc:Work
         rdf:about=""><dc:format>image/svg+xml</dc:format><dc:type
           rdf:resource="http://purl.org/dc/dcmitype/StillImage" /><dc:title></dc:title></cc:Work></rdf:RDF></metadata><defs
     id="defs4673" /><sodipodi:namedview
     pagecolor="#ffffff"
     bordercolor="#666666"
     borderopacity="1"
     objecttolerance="10"
     gridtolerance="10"
     guidetolerance="10"
     inkscape:pageopacity="0"
     inkscape:pageshadow="2"
     inkscape:window-width="1920"
     inkscape:window-height="1001"
     id="namedview4671"
     showgrid="false"
     inkscape:zoom="2.2680236"
     inkscape:cx="13.203183"
     inkscape:cy="175.80109"
     inkscape:window-x="-9"
     inkscape:window-y="-9"
     inkscape:window-maximized="1"
     inkscape:current-layer="g4638" /><g
     id="g4638"
     transform="matrix(0.84419576,0,0,0.86669242,29.100226,18.073883)"><path
       d="m 95.521,57.084 c 13.184,0 23.907,-6.249 29.547,-12.097 2.089,-2.165 2.681,-5.369 1.505,-8.139 -1.177,-2.77 -3.895,-4.567 -6.903,-4.567 H 71.372 c -3.009,0 -5.727,1.798 -6.903,4.567 -1.176,2.77 -0.584,5.974 1.506,8.14 5.641,5.848 16.364,12.096 29.546,12.096 z"
       id="path4634"
       inkscape:connector-curvature="0"
       style="fill:#000000;fill-opacity:0.02487562" /><path
       d="m 195.938,78.85673 v -60.067 h 9.333 c 4.143,0 7.5,-3.357 7.5,-7.5 0,-4.1429999 -3.357,-7.4999999 -7.5,-7.4999999 h -49 c -4.143,0 -7.5,3.357 -7.5,7.4999999 0,4.143 3.357,7.5 7.5,7.5 h 24.667 v 19.758 c -47,6.2 -83.697,25.987 -109.3,58.884 -27.674,35.557 -36.632,80.038 -39.344,111.093 -0.085,0.972 -0.121,1.936 -0.196,2.893 -18.324,3.872 -32.098,20.164 -32.098,39.622 0,22.332 18.178,40.5 40.51,40.5 22.332,0 40.505,-18.168 40.505,-40.5 0,-20.032 -14.62,-36.704 -33.75,-39.927 2.658,-32.091 11.322,-72.495 36.207,-104.468 22.736,-29.211 55.465,-47.002 97.465,-52.958 v 25.074 c -55,3.494 -99.584,49.823 -99.584,106.28 0,58.725 47.859,106.5 106.583,106.5 58.724,0 106.375,-47.775 106.375,-106.5 0.002,-55.949 -43.373,-101.959 -98.373,-106.184 z m -129.917,172.183 c 0,14.061 -11.439,25.5 -25.5,25.5 -14.061,0 -25.5,-11.439 -25.5,-25.5 0,-10.818 6.775,-20.079 16.303,-23.777 -0.61,23.593 1.903,28.757 2.023,29.593 0.538,3.738 3.745,6.434 7.414,6.434 0.355,0 0.716,-0.025 1.077,-0.077 4.1,-0.59 6.945,-4.392 6.356,-8.491 -0.056,-0.389 -2.496,-5.401 -1.784,-28.488 11.229,2.666 19.611,12.773 19.611,24.806 z m 122,25.5 c -50.453,0 -91.667,-41.047 -91.667,-91.5 0,-48.183 37.584,-87.784 84.584,-91.25 v 116 c 0,4.143 3.357,7.5 7.5,7.5 4.143,0 7.5,-3.357 7.5,-7.5 v -115.874 c 47,4.185 83.416,43.452 83.416,91.124 0,50.453 -40.88,91.5 -91.333,91.5 z"
       id="path4636"
       inkscape:connector-curvature="0"
       style="fill:#000000;fill-opacity:0.02487562" /></g><g
     id="g4640" /><g
     id="g4642" /><g
     id="g4644" /><g
     id="g4646" /><g
     id="g4648" /><g
     id="g4650" /><g
     id="g4652" /><g
     id="g4654" /><g
     id="g4656" /><g
     id="g4658" /><g
     id="g4660" /><g
     id="g4662" /><g
     id="g4664" /><g
     id="g4666" /><g
     id="g4668" /></svg>